<svg width="10" height="10" viewBox="0 0 10 10" fill="none" xmlns="http://www.w3.org/2000/svg">
<g clip-path="url(#clip0)">
<path d="M4.92874 4.81703C5.59052 4.81703 6.16356 4.57968 6.63177 4.11139C7.09999 3.64317 7.33734 3.07028 7.33734 2.40844C7.33734 1.74682 7.09999 1.17385 6.6317 0.705487C6.16341 0.23735 5.59044 0 4.92874 0C4.26689 0 3.694 0.23735 3.22578 0.705564C2.75757 1.17378 2.52014 1.74674 2.52014 2.40844C2.52014 3.07028 2.75757 3.64325 3.22586 4.11146C3.69415 4.5796 4.26712 4.81703 4.92874 4.81703Z" fill="#95999F"/>
<path d="M9.14314 7.68948C9.12964 7.49463 9.10233 7.28207 9.06212 7.05762C9.02153 6.83148 8.96927 6.61771 8.90671 6.42232C8.84209 6.22037 8.7542 6.02094 8.64555 5.82982C8.53279 5.63146 8.40034 5.45873 8.25172 5.3166C8.09631 5.1679 7.90604 5.04835 7.686 4.96114C7.46674 4.8744 7.22374 4.83045 6.96381 4.83045C6.86172 4.83045 6.763 4.87234 6.57234 4.99647C6.455 5.07299 6.31775 5.16149 6.16455 5.25937C6.03355 5.34284 5.85609 5.42104 5.6369 5.49184C5.42305 5.56104 5.20592 5.59614 4.99161 5.59614C4.7773 5.59614 4.56024 5.56104 4.34616 5.49184C4.1272 5.42112 3.94974 5.34292 3.81889 5.25945C3.66714 5.16248 3.52982 5.07398 3.41072 4.99639C3.22029 4.87226 3.12149 4.83038 3.01941 4.83038C2.7594 4.83038 2.51648 4.8744 2.29729 4.96122C2.07741 5.04827 1.88705 5.16782 1.73149 5.31667C1.58295 5.45888 1.45042 5.63154 1.33781 5.82982C1.22925 6.02094 1.14136 6.22029 1.07666 6.4224C1.01418 6.61778 0.961914 6.83148 0.921326 7.05762C0.881119 7.28177 0.853806 7.4944 0.840302 7.68971C0.827026 7.88105 0.820312 8.07965 0.820312 8.28022C0.820312 8.80222 0.986252 9.22481 1.31348 9.53647C1.63666 9.84401 2.06429 10 2.5843 10H7.39937C7.91939 10 8.34686 9.84409 8.67012 9.53647C8.99742 9.22504 9.16336 8.80238 9.16336 8.28015C9.16328 8.07865 9.15649 7.87991 9.14314 7.68948Z" fill="#95999F"/>
</g>
<defs>
<clipPath id="clip0">
<rect width="10" height="10" fill="white"/>
</clipPath>
</defs>
</svg>
